<svg id="visual" viewBox="0 0 1400 500" width="1400" height="500" xmlns="http://www.w3.org/2000/svg" xmlns:xlink="http://www.w3.org/1999/xlink" version="1.1"><rect x="0" y="0" width="1400" height="500" fill="#212729"></rect><path d="M0 244L15.5 239C31 234 62 224 93.2 216.2C124.3 208.3 155.7 202.7 186.8 202.8C218 203 249 209 280 232.7C311 256.3 342 297.7 373.2 297.7C404.3 297.7 435.7 256.3 466.8 251.3C498 246.3 529 277.7 560 281.3C591 285 622 261 653.2 244.5C684.3 228 715.7 219 746.8 217.7C778 216.3 809 222.7 840 230.2C871 237.7 902 246.3 933.2 255.8C964.3 265.3 995.7 275.7 1026.8 266.3C1058 257 1089 228 1120 212.8C1151 197.7 1182 196.3 1213.2 220.8C1244.3 245.3 1275.7 295.7 1306.8 304.8C1338 314 1369 282 1384.5 266L1400 250L1400 501L1384.5 501C1369 501 1338 501 1306.8 501C1275.7 501 1244.3 501 1213.2 501C1182 501 1151 501 1120 501C1089 501 1058 501 1026.8 501C995.7 501 964.3 501 933.2 501C902 501 871 501 840 501C809 501 778 501 746.8 501C715.7 501 684.3 501 653.2 501C622 501 591 501 560 501C529 501 498 501 466.8 501C435.7 501 404.3 501 373.2 501C342 501 311 501 280 501C249 501 218 501 186.8 501C155.7 501 124.3 501 93.2 501C62 501 31 501 15.5 501L0 501Z" fill="#dfa804"></path><path d="M0 299L15.5 289.3C31 279.7 62 260.3 93.2 272C124.3 283.7 155.7 326.3 186.8 347.3C218 368.3 249 367.7 280 367.8C311 368 342 369 373.2 365.3C404.3 361.7 435.7 353.3 466.8 340.8C498 328.3 529 311.7 560 312.5C591 313.3 622 331.7 653.2 337.3C684.3 343 715.7 336 746.8 324.8C778 313.7 809 298.3 840 298.2C871 298 902 313 933.2 327.8C964.3 342.7 995.7 357.3 1026.8 351.7C1058 346 1089 320 1120 318.2C1151 316.3 1182 338.7 1213.2 351.2C1244.3 363.7 1275.7 366.3 1306.8 361C1338 355.7 1369 342.3 1384.5 335.7L1400 329L1400 501L1384.5 501C1369 501 1338 501 1306.8 501C1275.7 501 1244.3 501 1213.2 501C1182 501 1151 501 1120 501C1089 501 1058 501 1026.8 501C995.7 501 964.3 501 933.2 501C902 501 871 501 840 501C809 501 778 501 746.8 501C715.7 501 684.3 501 653.2 501C622 501 591 501 560 501C529 501 498 501 466.8 501C435.7 501 404.3 501 373.2 501C342 501 311 501 280 501C249 501 218 501 186.8 501C155.7 501 124.3 501 93.2 501C62 501 31 501 15.5 501L0 501Z" fill="#e7bc50"></path><path d="M0 386L15.5 376.7C31 367.3 62 348.7 93.2 353.2C124.3 357.7 155.7 385.3 186.8 391.7C218 398 249 383 280 372.3C311 361.7 342 355.3 373.2 344.8C404.3 334.3 435.7 319.7 466.8 314.3C498 309 529 313 560 320.2C591 327.3 622 337.7 653.2 337.2C684.3 336.7 715.7 325.3 746.8 331.7C778 338 809 362 840 359C871 356 902 326 933.2 313.8C964.3 301.7 995.7 307.3 1026.8 311.5C1058 315.7 1089 318.3 1120 333.5C1151 348.7 1182 376.3 1213.2 391C1244.3 405.7 1275.7 407.3 1306.8 403.2C1338 399 1369 389 1384.5 384L1400 379L1400 501L1384.5 501C1369 501 1338 501 1306.8 501C1275.7 501 1244.3 501 1213.2 501C1182 501 1151 501 1120 501C1089 501 1058 501 1026.8 501C995.7 501 964.3 501 933.2 501C902 501 871 501 840 501C809 501 778 501 746.8 501C715.7 501 684.3 501 653.2 501C622 501 591 501 560 501C529 501 498 501 466.8 501C435.7 501 404.3 501 373.2 501C342 501 311 501 280 501C249 501 218 501 186.8 501C155.7 501 124.3 501 93.2 501C62 501 31 501 15.5 501L0 501Z" fill="#efd082"></path><path d="M0 380L15.5 380.8C31 381.7 62 383.3 93.2 384.3C124.3 385.3 155.7 385.7 186.8 388.7C218 391.7 249 397.3 280 405.3C311 413.3 342 423.7 373.2 423.5C404.3 423.3 435.7 412.7 466.8 410.8C498 409 529 416 560 413.8C591 411.7 622 400.3 653.2 391.3C684.3 382.3 715.7 375.7 746.8 379.8C778 384 809 399 840 411.7C871 424.3 902 434.7 933.2 426.3C964.3 418 995.7 391 1026.8 375.5C1058 360 1089 356 1120 364.2C1151 372.3 1182 392.7 1213.2 408.3C1244.3 424 1275.7 435 1306.8 432.3C1338 429.7 1369 413.3 1384.5 405.2L1400 397L1400 501L1384.5 501C1369 501 1338 501 1306.8 501C1275.7 501 1244.3 501 1213.2 501C1182 501 1151 501 1120 501C1089 501 1058 501 1026.8 501C995.7 501 964.3 501 933.2 501C902 501 871 501 840 501C809 501 778 501 746.8 501C715.7 501 684.3 501 653.2 501C622 501 591 501 560 501C529 501 498 501 466.8 501C435.7 501 404.3 501 373.2 501C342 501 311 501 280 501C249 501 218 501 186.8 501C155.7 501 124.3 501 93.2 501C62 501 31 501 15.5 501L0 501Z" fill="#f6e3b2"></path><path d="M0 461L15.5 451.5C31 442 62 423 93.2 414C124.3 405 155.7 406 186.8 412.5C218 419 249 431 280 435.2C311 439.3 342 435.7 373.2 430.3C404.3 425 435.7 418 466.8 424C498 430 529 449 560 454.5C591 460 622 452 653.2 452.7C684.3 453.3 715.7 462.7 746.8 467.2C778 471.7 809 471.3 840 463.3C871 455.3 902 439.7 933.2 440.8C964.3 442 995.7 460 1026.8 457.8C1058 455.7 1089 433.3 1120 425C1151 416.7 1182 422.3 1213.2 434C1244.3 445.7 1275.7 463.3 1306.8 470.2C1338 477 1369 473 1384.5 471L1400 469L1400 501L1384.5 501C1369 501 1338 501 1306.8 501C1275.7 501 1244.3 501 1213.2 501C1182 501 1151 501 1120 501C1089 501 1058 501 1026.8 501C995.7 501 964.3 501 933.2 501C902 501 871 501 840 501C809 501 778 501 746.8 501C715.7 501 684.3 501 653.2 501C622 501 591 501 560 501C529 501 498 501 466.8 501C435.7 501 404.3 501 373.2 501C342 501 311 501 280 501C249 501 218 501 186.8 501C155.7 501 124.3 501 93.2 501C62 501 31 501 15.5 501L0 501Z" fill="#fdf6e3"></path></svg>