<svg id="visual" viewBox="0 0 450 960" width="450" height="960" xmlns="http://www.w3.org/2000/svg" xmlns:xlink="http://www.w3.org/1999/xlink" version="1.1"><rect x="0" y="0" width="450" height="960" fill="#212729"></rect><path d="M0 631L10.7 613.5C21.3 596 42.7 561 64.2 561.2C85.7 561.3 107.3 596.7 128.8 622.5C150.3 648.3 171.7 664.7 193 662.3C214.3 660 235.7 639 257 657.3C278.3 675.7 299.7 733.3 321.2 737.3C342.7 741.3 364.3 691.7 385.8 656.3C407.3 621 428.7 600 439.3 589.5L450 579L450 961L439.3 961C428.7 961 407.3 961 385.8 961C364.3 961 342.7 961 321.2 961C299.7 961 278.3 961 257 961C235.7 961 214.3 961 193 961C171.7 961 150.3 961 128.8 961C107.3 961 85.7 961 64.2 961C42.7 961 21.3 961 10.7 961L0 961Z" fill="#dfa804" stroke-linecap="round" stroke-linejoin="miter"></path></svg>