<svg id="visual" viewBox="0 0 1400 700" width="1400" height="700" xmlns="http://www.w3.org/2000/svg" xmlns:xlink="http://www.w3.org/1999/xlink" version="1.1"><path d="M0 57L127 57L127 106L255 106L255 99L382 99L382 71L509 71L509 50L636 50L636 36L764 36L764 162L891 162L891 155L1018 155L1018 36L1145 36L1145 141L1273 141L1273 127L1400 127L1400 127L1400 0L1400 0L1273 0L1273 0L1145 0L1145 0L1018 0L1018 0L891 0L891 0L764 0L764 0L636 0L636 0L509 0L509 0L382 0L382 0L255 0L255 0L127 0L127 0L0 0Z" fill="#fdf6e3"></path><path d="M0 267L127 267L127 239L255 239L255 204L382 204L382 239L509 239L509 281L636 281L636 127L764 127L764 288L891 288L891 274L1018 274L1018 225L1145 225L1145 351L1273 351L1273 260L1400 260L1400 330L1400 125L1400 125L1273 125L1273 139L1145 139L1145 34L1018 34L1018 153L891 153L891 160L764 160L764 34L636 34L636 48L509 48L509 69L382 69L382 97L255 97L255 104L127 104L127 55L0 55Z" fill="#a3ada1"></path><path d="M0 470L127 470L127 442L255 442L255 344L382 344L382 323L509 323L509 351L636 351L636 302L764 302L764 498L891 498L891 519L1018 519L1018 330L1145 330L1145 414L1273 414L1273 554L1400 554L1400 442L1400 328L1400 258L1273 258L1273 349L1145 349L1145 223L1018 223L1018 272L891 272L891 286L764 286L764 125L636 125L636 279L509 279L509 237L382 237L382 202L255 202L255 237L127 237L127 265L0 265Z" fill="#5a6764"></path><path d="M0 701L127 701L127 701L255 701L255 701L382 701L382 701L509 701L509 701L636 701L636 701L764 701L764 701L891 701L891 701L1018 701L1018 701L1145 701L1145 701L1273 701L1273 701L1400 701L1400 701L1400 440L1400 552L1273 552L1273 412L1145 412L1145 328L1018 328L1018 517L891 517L891 496L764 496L764 300L636 300L636 349L509 349L509 321L382 321L382 342L255 342L255 440L127 440L127 468L0 468Z" fill="#212729"></path></svg>