<svg id="visual" viewBox="0 0 1400 500" width="1400" height="500" xmlns="http://www.w3.org/2000/svg" xmlns:xlink="http://www.w3.org/1999/xlink" version="1.1"><rect x="0" y="0" width="1400" height="500" fill="#fdf6e3"></rect><path d="M0 336L21.2 345.2C42.3 354.3 84.7 372.7 127.2 372C169.7 371.3 212.3 351.7 254.8 347.2C297.3 342.7 339.7 353.3 382 368.7C424.3 384 466.7 404 509 403.7C551.3 403.3 593.7 382.7 636.2 362.3C678.7 342 721.3 322 763.8 338.2C806.3 354.3 848.7 406.7 891 408.7C933.3 410.7 975.7 362.3 1018 349.3C1060.3 336.3 1102.7 358.7 1145.2 376C1187.7 393.3 1230.3 405.7 1272.8 393.5C1315.3 381.3 1357.7 344.7 1378.8 326.3L1400 308L1400 501L1378.8 501C1357.7 501 1315.3 501 1272.8 501C1230.3 501 1187.7 501 1145.2 501C1102.7 501 1060.3 501 1018 501C975.7 501 933.3 501 891 501C848.7 501 806.3 501 763.8 501C721.3 501 678.7 501 636.2 501C593.7 501 551.3 501 509 501C466.7 501 424.3 501 382 501C339.7 501 297.3 501 254.8 501C212.3 501 169.7 501 127.2 501C84.7 501 42.3 501 21.2 501L0 501Z" fill="#212729"></path></svg>